{
  "accessors": [
    {
      "bufferView": 2,
      "componentType": 5126,
      "count": 48,
      "max": [
        1.8577210903167725,
        0.3100610077381134,
        0.3100610077381134
      ],
      "min": [
        -2.0,
        -0.310060977935791,
        -0.5552476048469543
      ],
      "type": "VEC3"
    },
    {
      "bufferView": 2,
      "byteOffset": 576,
      "componentType": 5126,
      "count": 48,
      "max": [
        0.9576194286346436,
        0.9997029900550842,
        0.9996664524078369
      ],
      "min": [
        -1.0,
        -0.9995344281196594,
        -0.9993438124656677
      ],
      "type": "VEC3"
    },
    {
      "bufferView": 1,
      "componentType": 5126,
      "count": 48,
      "max": [
        0.5494171380996704,
        0.9998764395713806
      ],
      "min": [
        0.00012367816816549748,
        0.0001236318057635799
      ],
      "type": "VEC2"
    },
    {
      "bufferView": 0,
      "componentType": 5125,
      "count": 132,
      "type": "SCALAR"
    },
    {
      "bufferView": 2,
      "byteOffset": 1152,
      "componentType": 5126,
      "count": 84,
      "max": [
        2.956188917160034,
        3.597512722015381,
        1.0297588109970093
      ],
      "min": [
        -2.2126684188842773,
        -0.46221309900283813,
        -0.7115194797515869
      ],
      "type": "VEC3"
    },
    {
      "bufferView": 2,
      "byteOffset": 2160,
      "componentType": 5126,
      "count": 84,
      "max": [
        0.9460529685020447,
        0.9926635026931763,
        0.998374879360199
      ],
      "min": [
        -0.877392053604126,
        -0.9926635026931763,
        -0.9996756315231323
      ],
      "type": "VEC3"
    },
    {
      "bufferView": 1,
      "byteOffset": 384,
      "componentType": 5126,
      "count": 84,
      "max": [
        0.5184215307235718,
        0.9998829364776611
      ],
      "min": [
        0.00011710639228112996,
        0.00011710215039784089
      ],
      "type": "VEC2"
    },
    {
      "bufferView": 0,
      "byteOffset": 528,
      "componentType": 5125,
      "count": 216,
      "type": "SCALAR"
    },
    {
      "bufferView": 2,
      "byteOffset": 3168,
      "componentType": 5126,
      "count": 56,
      "max": [
        -0.012916527688503265,
        0.3962561786174774,
        0.31878843903541565
      ],
      "min": [
        -2.789419651031494,
        -5.399905204772949,
        -1.988897442817688
      ],
      "type": "VEC3"
    },
    {
      "bufferView": 2,
      "byteOffset": 3840,
      "componentType": 5126,
      "count": 56,
      "max": [
        0.9997804164886475,
        0.9892992377281189,
        0.9989345073699951
      ],
      "min": [
        -0.9739972949028015,
        -0.9892994165420532,
        -0.9977700114250183
      ],
      "type": "VEC3"
    },
    {
      "bufferView": 1,
      "byteOffset": 1056,
      "componentType": 5126,
      "count": 56,
      "max": [
        1.0,
        1.0
      ],
      "min": [
        0.0,
        0.0
      ],
      "type": "VEC2"
    },
    {
      "bufferView": 0,
      "byteOffset": 1392,
      "componentType": 5125,
      "count": 168,
      "type": "SCALAR"
    },
    {
      "bufferView": 2,
      "byteOffset": 4512,
      "componentType": 5126,
      "count": 56,
      "max": [
        3.1640875339508057,
        3.0414209365844727,
        0.8901653289794922
      ],
      "min": [
        0.18904851377010345,
        -0.22551411390304565,
        -0.823844850063324
      ],
      "type": "VEC3"
    },
    {
      "bufferView": 2,
      "byteOffset": 5184,
      "componentType": 5126,
      "count": 56,
      "max": [
        0.9956907629966736,
        0.9838041067123413,
        0.9992765784263611
      ],
      "min": [
        -0.9638277292251587,
        -0.9887504577636719,
        -0.9984377026557922
      ],
      "type": "VEC3"
    },
    {
      "bufferView": 1,
      "byteOffset": 1504,
      "componentType": 5126,
      "count": 56,
      "max": [
        1.0,
        1.0
      ],
      "min": [
        0.0,
        0.0
      ],
      "type": "VEC2"
    },
    {
      "bufferView": 0,
      "byteOffset": 2064,
      "componentType": 5125,
      "count": 168,
      "type": "SCALAR"
    },
    {
      "bufferView": 2,
      "byteOffset": 5856,
      "componentType": 5126,
      "count": 392,
      "max": [
        1.7981235980987549,
        2.38653564453125,
        5.578115940093994
      ],
      "min": [
        -3.6603055000305176,
        -1.9461451768875122,
        -2.0816685020444135e-17
      ],
      "type": "VEC3"
    },
    {
      "bufferView": 2,
      "byteOffset": 10560,
      "componentType": 5126,
      "count": 392,
      "max": [
        1.000431725309281e-12,
        0.4762752652168274,
        1.0
      ],
      "min": [
        -0.8759620189666748,
        -8.139143113823633e-13,
        0.0765131413936615
      ],
      "type": "VEC3"
    },
    {
      "bufferView": 1,
      "byteOffset": 1952,
      "componentType": 5126,
      "count": 392,
      "max": [
        0.3904113173484802,
        0.9999375939369202
      ],
      "min": [
        6.249253783607855e-05,
        6.246207340154797e-05
      ],
      "type": "VEC2"
    },
    {
      "bufferView": 0,
      "byteOffset": 2736,
      "componentType": 5125,
      "count": 588,
      "type": "SCALAR"
    },
    {
      "bufferView": 2,
      "byteOffset": 15264,
      "componentType": 5126,
      "count": 392,
      "max": [
        1.1961309909820557,
        2.38653564453125,
        0.07748328149318695
      ],
      "min": [
        -3.6603055000305176,
        -4.1948747634887695,
        -0.7572033405303955
      ],
      "type": "VEC3"
    },
    {
      "bufferView": 2,
      "byteOffset": 19968,
      "componentType": 5126,
      "count": 392,
      "max": [
        0.02819889597594738,
        2.292326918562626e-12,
        1.0
      ],
      "min": [
        -8.292701920119272e-13,
        -0.22358806431293488,
        0.9742757678031921
      ],
      "type": "VEC3"
    },
    {
      "bufferView": 1,
      "byteOffset": 5088,
      "componentType": 5126,
      "count": 392,
      "max": [
        0.3904113173484802,
        0.9999375939369202
      ],
      "min": [
        6.249253783607855e-05,
        6.246207340154797e-05
      ],
      "type": "VEC2"
    },
    {
      "bufferView": 0,
      "byteOffset": 5088,
      "componentType": 5125,
      "count": 588,
      "type": "SCALAR"
    },
    {
      "bufferView": 2,
      "byteOffset": 24672,
      "componentType": 5126,
      "count": 1616,
      "max": [
        4.636223793029785,
        1.4036855697631836,
        3.6884748935699463
      ],
      "min": [
        -4.172084808349609,
        -1.4036855697631836,
        -1.7244292497634888
      ],
      "type": "VEC3"
    },
    {
      "bufferView": 2,
      "byteOffset": 44064,
      "componentType": 5126,
      "count": 1616,
      "max": [
        0.9551708102226257,
        0.9978820085525513,
        0.9919586181640625
      ],
      "min": [
        -0.9440788626670837,
        -0.997882068157196,
        -0.99932861328125
      ],
      "type": "VEC3"
    },
    {
      "bufferView": 1,
      "byteOffset": 8224,
      "componentType": 5126,
      "count": 1616,
      "max": [
        0.7857643365859985,
        0.9998746514320374
      ],
      "min": [
        0.00012533366680145264,
        0.0001252889633178711
      ],
      "type": "VEC2"
    },
    {
      "bufferView": 0,
      "byteOffset": 7440,
      "componentType": 5125,
      "count": 2424,
      "type": "SCALAR"
    }
  ],
  "asset": {
    "extras": {
      "author": "Leomaderart (https://sketchfab.com/leomaderart)",
      "license": "CC-BY-4.0 (http://creativecommons.org/licenses/by/4.0/)",
      "source": "https://sketchfab.com/3d-models/stylized-hummingbird-low-poly-a61ea92937a94a87a5fd4b5b2b657a5a",
      "title": "Stylized Hummingbird - Low poly"
    },
    "generator": "Sketchfab-16.16.0",
    "version": "2.0"
  },
  "bufferViews": [
    {
      "buffer": 0,
      "byteLength": 17136,
      "name": "floatBufferViews",
      "target": 34963
    },
    {
      "buffer": 0,
      "byteLength": 21152,
      "byteOffset": 17136,
      "byteStride": 8,
      "name": "floatBufferViews",
      "target": 34962
    },
    {
      "buffer": 0,
      "byteLength": 63456,
      "byteOffset": 38288,
      "byteStride": 12,
      "name": "floatBufferViews",
      "target": 34962
    }
  ],
  "buffers": [
    {
      "byteLength": 101744,
      "uri": "scene.bin"
    }
  ],
  "extensionsUsed": [
    "KHR_materials_unlit"
  ],
  "images": [
    {
      "uri": "textures/Material.005_baseColor.png"
    },
    {
      "uri": "textures/Material.003_baseColor.png"
    },
    {
      "uri": "textures/Material.004_baseColor.png"
    }
  ],
  "materials": [
    {
      "doubleSided": true,
      "extensions": {
        "KHR_materials_unlit": {}
      },
      "name": "Material.005",
      "pbrMetallicRoughness": {
        "baseColorFactor": [
          0.6682427137738277,
          0.6682427137738277,
          0.6682427137738277,
          1.0
        ],
        "baseColorTexture": {
          "index": 0
        },
        "metallicFactor": 0.0
      }
    },
    {
      "doubleSided": true,
      "extensions": {
        "KHR_materials_unlit": {}
      },
      "name": "Material.002",
      "pbrMetallicRoughness": {
        "baseColorFactor": [
          0.03270868484316779,
          0.03270868484316779,
          0.03270868484316779,
          1.0
        ],
        "metallicFactor": 0.0
      }
    },
    {
      "alphaMode": "BLEND",
      "doubleSided": true,
      "extensions": {
        "KHR_materials_unlit": {}
      },
      "name": "Material.003",
      "pbrMetallicRoughness": {
        "baseColorTexture": {
          "index": 1
        },
        "metallicFactor": 0.0
      }
    },
    {
      "doubleSided": true,
      "extensions": {
        "KHR_materials_unlit": {}
      },
      "name": "Material.004",
      "pbrMetallicRoughness": {
        "baseColorTexture": {
          "index": 2
        },
        "metallicFactor": 0.0
      }
    }
  ],
  "meshes": [
    {
      "name": "NurbsPath.004_Material.005_0",
      "primitives": [
        {
          "attributes": {
            "NORMAL": 1,
            "POSITION": 0,
            "TEXCOORD_0": 2
          },
          "indices": 3,
          "material": 0,
          "mode": 4
        }
      ]
    },
    {
      "name": "NurbsPath.005_Material.002_0",
      "primitives": [
        {
          "attributes": {
            "NORMAL": 5,
            "POSITION": 4,
            "TEXCOORD_0": 6
          },
          "indices": 7,
          "material": 1,
          "mode": 4
        }
      ]
    },
    {
      "name": "NurbsPath.006_Material.002_0",
      "primitives": [
        {
          "attributes": {
            "NORMAL": 9,
            "POSITION": 8,
            "TEXCOORD_0": 10
          },
          "indices": 11,
          "material": 1,
          "mode": 4
        }
      ]
    },
    {
      "name": "NurbsPath.007_Material.002_0",
      "primitives": [
        {
          "attributes": {
            "NORMAL": 13,
            "POSITION": 12,
            "TEXCOORD_0": 14
          },
          "indices": 15,
          "material": 1,
          "mode": 4
        }
      ]
    },
    {
      "name": "Plane.003_Material.003_0",
      "primitives": [
        {
          "attributes": {
            "NORMAL": 17,
            "POSITION": 16,
            "TEXCOORD_0": 18
          },
          "indices": 19,
          "material": 2,
          "mode": 4
        }
      ]
    },
    {
      "name": "Plane.004_Material.003_0",
      "primitives": [
        {
          "attributes": {
            "NORMAL": 21,
            "POSITION": 20,
            "TEXCOORD_0": 22
          },
          "indices": 23,
          "material": 2,
          "mode": 4
        }
      ]
    },
    {
      "name": "Cube.001_Material.004_0",
      "primitives": [
        {
          "attributes": {
            "NORMAL": 25,
            "POSITION": 24,
            "TEXCOORD_0": 26
          },
          "indices": 27,
          "material": 3,
          "mode": 4
        }
      ]
    }
  ],
  "nodes": [
    {
      "children": [
        1
      ],
      "matrix": [
        1.0,
        0.0,
        0.0,
        0.0,
        0.0,
        2.220446049250313e-16,
        -1.0,
        0.0,
        0.0,
        1.0,
        2.220446049250313e-16,
        0.0,
        0.0,
        0.0,
        0.0,
        1.0
      ],
      "name": "Sketchfab_model"
    },
    {
      "children": [
        2
      ],
      "matrix": [
        0.009999999776482582,
        0.0,
        0.0,
        0.0,
        0.0,
        0.0,
        0.009999999776482582,
        0.0,
        0.0,
        -0.009999999776482582,
        0.0,
        0.0,
        0.0,
        0.0,
        0.0,
        1.0
      ],
      "name": "hummingbird2.fbx"
    },
    {
      "children": [
        3,
        5,
        7,
        9,
        11,
        13,
        15
      ],
      "name": "RootNode"
    },
    {
      "children": [
        4
      ],
      "matrix": [
        100.0,
        0.0,
        0.0,
        0.0,
        0.0,
        -1.629206793918314e-05,
        -99.99999999999868,
        0.0,
        0.0,
        99.99999999999868,
        -1.629206793918314e-05,
        0.0,
        516.5772705078125,
        149.37120056152344,
        1.8263488527736627e-05,
        1.0
      ],
      "name": "NurbsPath.004"
    },
    {
      "mesh": 0,
      "name": "NurbsPath.004_Material.005_0"
    },
    {
      "children": [
        6
      ],
      "matrix": [
        -7.262865376250062,
        -27.20440115752463,
        -2.89147429071274e-06,
        0.0,
        -3.686333285054446e-06,
        3.976900645786522e-06,
        -28.157213211059045,
        0.0,
        27.20440115752453,
        -7.262865376249548,
        -4.5873923123786334e-06,
        0.0,
        17.558439254760742,
        -281.5868225097656,
        44.14065933227539,
        1.0
      ],
      "name": "NurbsPath.005"
    },
    {
      "mesh": 1,
      "name": "NurbsPath.005_Material.002_0"
    },
    {
      "children": [
        8
      ],
      "matrix": [
        -17.12315553445847,
        -3.7031349080612737,
        1.7726846447728172e-05,
        0.0,
        1.937166202425837e-05,
        -5.710649959058817e-06,
        17.51900291441707,
        0.0,
        -3.7031349080530345,
        17.123155534466694,
        9.676362643968027e-06,
        0.0,
        -24.505653381347656,
        -287.8948059082031,
        43.82954406738281,
        1.0
      ],
      "name": "NurbsPath.006"
    },
    {
      "mesh": 2,
      "name": "NurbsPath.006_Material.002_0"
    },
    {
      "children": [
        10
      ],
      "matrix": [
        -6.593918971363829,
        -26.457409012323932,
        -7.0252684480207614,
        0.0,
        5.255221821694567,
        5.868314255923924,
        -27.032831379437468,
        0.0,
        26.865061409455645,
        -7.641795772618424,
        3.563718373950987,
        0.0,
        19.370128631591797,
        -279.56378173828125,
        43.3647575378418,
        1.0
      ],
      "name": "NurbsPath.007"
    },
    {
      "mesh": 3,
      "name": "NurbsPath.007_Material.002_0"
    },
    {
      "children": [
        12
      ],
      "matrix": [
        94.53372358179458,
        -38.010614632552816,
        85.89529829325484,
        0.0,
        80.714423514371,
        95.20225521330828,
        -46.702658308638334,
        0.0,
        -48.041517649396596,
        85.15369606682786,
        90.5554556559762,
        0.0,
        32.235443115234375,
        0.0,
        -128.9208221435547,
        1.0
      ],
      "name": "Plane.003"
    },
    {
      "mesh": 4,
      "name": "Plane.003_Material.003_0"
    },
    {
      "children": [
        14
      ],
      "matrix": [
        80.87803459136973,
        6.942258419353904,
        10.1706928991472,
        0.0,
        10.866709949774403,
        -8.452351662778527,
        -80.64344699531182,
        0.0,
        -5.792454798668842,
        81.07561893347572,
        -9.278181880555932,
        0.0,
        -420.4233703613281,
        -237.73680114746094,
        -45.5797004699707,
        1.0
      ],
      "name": "Plane.004"
    },
    {
      "mesh": 5,
      "name": "Plane.004_Material.003_0"
    },
    {
      "children": [
        16
      ],
      "matrix": [
        100.0,
        0.0,
        0.0,
        0.0,
        -0.0,
        -1.629206793918314e-05,
        -99.99999999999868,
        0.0,
        0.0,
        99.99999999999868,
        -1.629206793918314e-05,
        0.0,
        -109.13355255126953,
        -125.56228637695313,
        1.6870402760105208e-05,
        1.0
      ],
      "name": "Cube.001"
    },
    {
      "mesh": 6,
      "name": "Cube.001_Material.004_0"
    }
  ],
  "samplers": [
    {
      "magFilter": 9729,
      "minFilter": 9987,
      "wrapS": 10497,
      "wrapT": 10497
    }
  ],
  "scene": 0,
  "scenes": [
    {
      "name": "Sketchfab_Scene",
      "nodes": [
        0
      ]
    }
  ],
  "textures": [
    {
      "sampler": 0,
      "source": 0
    },
    {
      "sampler": 0,
      "source": 1
    },
    {
      "sampler": 0,
      "source": 2
    }
  ]
}
